<svg id="Livello_1" data-name="Livello 1" xmlns="http://www.w3.org/2000/svg" viewBox="0 0 1024 1024"><defs><style>.cls-1{opacity:0.9;}.cls-2{fill:#fff;}</style></defs><g class="cls-1"><path class="cls-2" d="M610.47,792.53a233,233,0,0,1-79.34-14.3,42.83,42.83,0,0,1,29.13-80.56c38.24,13.84,76.28,11.9,109.83-5.15a42.83,42.83,0,1,1,38.8,76.37A215.39,215.39,0,0,1,610.47,792.53Z"/></g><g class="cls-1"><path class="cls-2" d="M775.78,677.81A42.86,42.86,0,0,1,735,621.71c5.94-18.23,6.66-38,2.13-58.66a42.83,42.83,0,0,1,83.68-18.3c7.82,35.76,6.36,70.57-4.35,103.48A42.86,42.86,0,0,1,775.78,677.81Z"/></g><g class="cls-1"><path class="cls-2" d="M353.4,711.48A42.84,42.84,0,0,1,338.9,709c-81.83-29.44-133.7-96.51-138.76-179.42-5.39-83.87,38.69-156.78,117.94-194.89l160.29-77.06c58.81-28.23,123.76-30.16,184.17-5.57,66.56,27,111.39,79,126.17,146.36a42.83,42.83,0,1,1-83.66,18.37c-8.68-39.51-34.53-69-74.78-85.38-38.19-15.55-77.75-14.37-114.81,3.43l-160.26,77c-48,23.11-72.74,63-69.57,112.34,3,49.22,32.21,86.17,82.27,104.17a42.84,42.84,0,0,1-14.5,83.14Z"/></g></svg>