<svg id="Livello_1" data-name="Livello 1" xmlns="http://www.w3.org/2000/svg" viewBox="0 0 1024 1024"><defs><style>.cls-1{fill:#5b1ed1;}</style></defs><path class="cls-1" d="M803.7,466.35,606.87,269.51a42.66,42.66,0,0,0-60.34,60.33L686,469.33H256a42.67,42.67,0,0,0,0,85.34H686L546.53,694.16a42.66,42.66,0,1,0,60.34,60.33L803.69,557.67a64.54,64.54,0,0,0,0-91.32Z"/><path class="cls-1" d="M512,42.67C253.23,42.67,42.69,253.21,42.69,512S253.23,981.33,512,981.33,981.35,770.79,981.35,512,770.81,42.67,512,42.67ZM512,896c-211.74,0-384-172.26-384-384S300.28,128,512,128,896,300.26,896,512,723.76,896,512,896Z"/></svg>