<svg id="Livello_1" data-name="Livello 1" xmlns="http://www.w3.org/2000/svg" viewBox="0 0 1024 1024"><defs><style>.cls-1{fill:#fff;}</style></defs><path class="cls-1" d="M117.22,682.67a74.3,74.3,0,0,0,53.64-23.14c10.7-11.19,22-22.57,34-34,10.68-10.18,3.46-28.2-11.29-28.2H85.33a42.67,42.67,0,0,0-42.46,46.86c2.11,22.18,22,38.48,44.29,38.48Z"/><path class="cls-1" d="M730.06,630.27c-.26-5.17-1.4-9.4-3.62-12.44-9.47-13-24.56-20.5-89.86-20.5-56.73,0-110.57,15.92-159.88,40.43-22.38,11.13-14.41,44.91,10.58,44.91H678.06C706.93,682.67,731.5,659.11,730.06,630.27Z"/><path class="cls-1" d="M981.13,635.81c-2.11-22.18-22-38.48-44.29-38.48h-7.46c-17.07,0-30.4,14.13-30.17,31.2.1,7.35-.14,14.72-.67,22.09-1.27,17.4,13,32,30.4,32h9.73A42.67,42.67,0,0,0,981.13,635.81Z"/><path class="cls-1" d="M636.58,469.33c-318.65,0-539,346.64-548.18,361.39A42.66,42.66,0,0,0,160.74,876c2-3.2,204.76-321.3,475.84-321.3,48.33,0,109.77,7.64,128,44,27.58,55-32.48,169.71-76.81,229a42.67,42.67,0,1,0,68.27,51.2c15-20,144.71-198.7,84.88-318.34C810.66,500,741.91,469.33,636.58,469.33Z"/><circle class="cls-1" cx="298.67" cy="469.33" r="85.33" transform="translate(-244.39 348.65) rotate(-45)"/></svg>