<svg id="Livello_1" data-name="Livello 1" xmlns="http://www.w3.org/2000/svg" viewBox="0 0 1024 1024"><defs><style>.cls-1{fill:#b3b3b3;}</style></defs><path class="cls-1" d="M937.31,845.6l-57.4-57.4a88.86,88.86,0,0,0,3.1-23V601a89,89,0,0,0-89-89H515.71a89,89,0,0,0-89,89V765.22a89,89,0,0,0,89,89H794a88.86,88.86,0,0,0,23-3.1l57.4,57.4a44.52,44.52,0,0,0,63-63Z"/><path class="cls-1" d="M469.33,170.67H298.67A85.33,85.33,0,0,0,213.33,256v85.33a85,85,0,0,0,3,22L166.1,413.56a42.67,42.67,0,1,0,60.34,60.34l50.21-50.21a85,85,0,0,0,22,3H469.33a85.34,85.34,0,0,0,85.34-85.34V256A85.33,85.33,0,0,0,469.33,170.67ZM426.67,341.33H341.33a42.67,42.67,0,0,1,0-85.33h85.34a42.67,42.67,0,0,1,0,85.33Z"/></svg>