<svg id="Livello_1" data-name="Livello 1" xmlns="http://www.w3.org/2000/svg" viewBox="0 0 1024 1024"><defs><style>.cls-1{fill:#b197e4;}</style></defs><path class="cls-1" d="M774.31,353.83a42.66,42.66,0,0,0-60.33,0L434.64,633.15,310.07,508.57a42.67,42.67,0,0,0-60.34,60.36L384.64,703.82a70.66,70.66,0,0,0,100,0L774.31,414.17A42.65,42.65,0,0,0,774.31,353.83Z"/><path class="cls-1" d="M512,42.67C253.23,42.67,42.69,253.21,42.69,512S253.23,981.33,512,981.33,981.35,770.79,981.35,512,770.81,42.67,512,42.67ZM512,896c-211.74,0-384-172.26-384-384S300.28,128,512,128,896,300.26,896,512,723.76,896,512,896Z"/></svg>