<svg id="Livello_1" data-name="Livello 1" xmlns="http://www.w3.org/2000/svg" viewBox="0 0 1024 1024"><defs><style>.cls-1{fill:#b197e4;}</style></defs><path class="cls-1" d="M1011.39,951,778.44,718.11a335.29,335.29,0,0,0,70.48-206.25c0-186.19-150.87-337.06-337.06-337.06S174.8,325.67,174.8,511.86,325.67,848.92,511.86,848.92a335.29,335.29,0,0,0,206.25-70.48L951,1011.39A42.72,42.72,0,0,0,1011.39,951Zm-291-290.9a250.14,250.14,0,0,1-60.33,60.33,253.62,253.62,0,0,1-148.22,47.45c-141.39,0-256-114.6-256-256s114.6-256,256-256,256,114.6,256,256A253.62,253.62,0,0,1,720.41,660.08Z"/><path class="cls-1" d="M511.86,448.11a51.2,51.2,0,1,0-51.2-51.2A51.2,51.2,0,0,0,511.86,448.11Z"/><path class="cls-1" d="M586.63,426.73l-45.72,39a48.72,48.72,0,0,1-58.1,0l-45.72-39a25.6,25.6,0,0,0-36.21,36.21l57.76,49.22a24.25,24.25,0,0,0,2,1.65l6.25,141.82a25.52,25.52,0,0,0,44.95,13.18,25.52,25.52,0,0,0,44.95-13.18l6.25-141.82a24.38,24.38,0,0,0,2-1.65l57.75-49.22a25.6,25.6,0,0,0-36.21-36.21Z"/></svg>