<svg id="Livello_1" data-name="Livello 1" xmlns="http://www.w3.org/2000/svg" viewBox="0 0 1024 1024"><defs><style>.cls-1{fill:#5b1ed1;}</style></defs><path class="cls-1" d="M1008.9,380.59l-38-209.92L761,208.66a42.67,42.67,0,0,0,15.2,84l62.44-11.3L739.43,424.25a27.79,27.79,0,0,1-35.09,9l-60.65-30.33a113.16,113.16,0,0,0-144.54,38.39L397.35,594A27.67,27.67,0,0,1,362,603.35l-59.61-29.79a113.14,113.14,0,0,0-144.55,38.38L21.58,816.28a42.67,42.67,0,1,0,71,47.34L228.82,659.27a27.69,27.69,0,0,1,35.38-9.39l59.6,29.79a113.14,113.14,0,0,0,144.55-38.38L570.15,488.6a27.7,27.7,0,0,1,35.37-9.39l60.65,30.32c49.94,25,111.55,9.21,143.36-36.63L912.14,325.07l12.79,70.72a42.67,42.67,0,0,0,84-15.2Z"/></svg>