<svg id="Livello_1" data-name="Livello 1" xmlns="http://www.w3.org/2000/svg" viewBox="0 0 1024 1024"><defs><style>.cls-1{fill:#b197e4;}</style></defs><path class="cls-1" d="M1015.32,270.44a54.27,54.27,0,0,0-45.83-25,55.07,55.07,0,0,0-9.66.86l-54.93,9.85a65,65,0,0,0-41.71,26.82l-10.72,15.48a27.52,27.52,0,0,0-1.81,28.89,27.83,27.83,0,0,0,24.63,15.11,29.24,29.24,0,0,0,5.17-.47l32.77-5.88L817.07,475a58,58,0,0,1-37.54,24.2l-66.23,12a126.88,126.88,0,0,0-81,51.43l-63.38,77.15-49.11-88.89a1.85,1.85,0,0,1,.1-1.95l22-31.84A51.1,51.1,0,0,1,575,495.79l66.22-12A133.62,133.62,0,0,0,727.76,428L859,238.42A50.51,50.51,0,0,0,808.42,160L416.71,231.2A107.69,107.69,0,0,0,359.82,261a1.85,1.85,0,0,1-2.95-.41l-44.56-81.26c-21.84-39.83-66.16-62.52-111.06-55.62a136.7,136.7,0,0,0-116,147.32l3,34.71a1.85,1.85,0,0,1-1.51,2L13.3,321.08a16.17,16.17,0,0,0-9,26.86L498.43,848.29c32.1,34.29,76.19,51.66,122.1,53.13,32,1,55.5-8.28,68.53-15.32a13.84,13.84,0,0,0,5.49-18.86l-83.95-152,84.57-102.92,2-2.63a47.09,47.09,0,0,1,30.5-19.66l66.22-12A137.63,137.63,0,0,0,883,520.59L1014.26,331A54.36,54.36,0,0,0,1015.32,270.44ZM420.46,322.07l.17-.18a21.9,21.9,0,0,1,11.51-6.08l284-51.64A9.86,9.86,0,0,1,726,279.48L657.12,379a47.6,47.6,0,0,1-31.23,20.12l-66.22,12a136.52,136.52,0,0,0-87.21,55.29l-58-103.38A34.12,34.12,0,0,1,420.46,322.07Zm90,415c-68.19-71.44-226.23-239.23-320.38-356.94C170.76,356,171,263.75,171,263.75a50.84,50.84,0,0,1,43.41-55,20.07,20.07,0,0,1,3-.23c7.84,0,15.54,4.79,19.6,12.2L520.27,729.81C523.78,736.12,515.43,742.27,510.45,737.05Z"/></svg>