<svg id="Livello_1" data-name="Livello 1" xmlns="http://www.w3.org/2000/svg" viewBox="0 0 1024 1024"><defs><style>.cls-1{fill:#b3b3b3;}</style></defs><circle class="cls-1" cx="512" cy="298.67" r="85.33"/><path class="cls-1" d="M597.33,554.67a85.33,85.33,0,1,0-170.66,0V725.33a85.33,85.33,0,1,0,170.66,0Z"/><path class="cls-1" d="M512,938.67C276.73,938.67,85.33,747.27,85.33,512S276.73,85.33,512,85.33,938.67,276.73,938.67,512,747.27,938.67,512,938.67Zm0-768c-188.21,0-341.33,153.12-341.33,341.33S323.79,853.33,512,853.33,853.33,700.21,853.33,512,700.21,170.67,512,170.67Z"/></svg>