<svg id="Livello_1" data-name="Livello 1" xmlns="http://www.w3.org/2000/svg" viewBox="0 0 1024 1024"><defs><style>.cls-1{fill:#5b1ed1;}</style></defs><path class="cls-1" d="M512,426.67a128,128,0,1,0-128-128A128,128,0,0,0,512,426.67Z"/><path class="cls-1" d="M714.61,793.12C693,711.4,664.79,635.69,635.17,579.94c-11.28-21.24-22.63-39.26-34.09-54.32l-7,35c13.18,10.19,44.35,43.1,28.5,118.55a8.53,8.53,0,0,1-8.34,6.77,8.86,8.86,0,0,1-1.77-.18,8.53,8.53,0,0,1-6.59-10.11c14.57-69.36-14.79-96.17-23.18-102.25-10.23,2.17-47.72,14.77-62.32,84.29a8.53,8.53,0,1,1-16.7-3.5c15.8-75.25,57.42-93,73.68-97l9.73-48.37C562.8,482.41,538,469.33,512,469.33c-26.89,0-52.6,13.95-77.68,42.28L445,564.7a32,32,0,1,1-16.73,3.35l-7.88-39.11a409.63,409.63,0,0,0-31.58,51C359.2,635.69,331,711.4,309.39,793.12c-12.34,46.68-19.62,93.72,10.44,121.56,13,12.05,27.81,16.43,43.56,16.43,21.3,0,44.34-8,66.92-15.87,25.92-9,55.3-19.24,81.69-19.24s55.77,10.22,81.69,19.24c39.27,13.65,79.88,27.82,110.48-.56C734.23,886.83,727,839.8,714.61,793.12Z"/></svg>