<svg id="Livello_1" data-name="Livello 1" xmlns="http://www.w3.org/2000/svg" viewBox="0 0 1024 1024"><defs><style>.cls-1{fill:#fff;}</style></defs><path class="cls-1" d="M286.17,456.83,512,231,737.83,456.83a42.66,42.66,0,0,0,60.34-60.33L572.33,170.67a85.37,85.37,0,0,0-120.66,0L225.83,396.5a42.66,42.66,0,0,0,60.34,60.33Z"/><path class="cls-1" d="M768,563.52A42.54,42.54,0,0,0,737.83,576L512,801.85,286.17,576a42.66,42.66,0,1,0-60.34,60.33L451.67,862.19a85.39,85.39,0,0,0,120.66,0L798.17,636.35A42.67,42.67,0,0,0,768,563.52Z"/></svg>