<svg id="Livello_1" data-name="Livello 1" xmlns="http://www.w3.org/2000/svg" viewBox="0 0 1024 1024"><defs><style>.cls-1{fill:#b3b3b3;}</style></defs><path class="cls-1" d="M719.71,576.17S590.83,351,590.42,350.36A85.46,85.46,0,0,0,568.34,320a85.33,85.33,0,1,0-112.68,0,85.46,85.46,0,0,0-22.08,30.39c-.41.63-129.29,225.81-129.29,225.81a42.66,42.66,0,1,0,74.09,42.33L426.67,534v63.33a82.59,82.59,0,0,0,.55,9.5,55.2,55.2,0,0,1-5.2,30.38A380.29,380.29,0,0,0,384,803v91.38c0,22.29,16.29,42.18,38.47,44.3a42.67,42.67,0,0,0,46.86-42.46V803c0-87.57,42.67-155.78,42.67-155.78S554.67,715.38,554.67,803v93.22a42.67,42.67,0,0,0,46.86,42.46c22.18-2.12,38.47-22,38.47-44.3V803a380.29,380.29,0,0,0-38-165.74,55.2,55.2,0,0,1-5.2-30.38,82.59,82.59,0,0,0,.55-9.5V534l48.29,84.5a42.66,42.66,0,0,0,74.09-42.33Z"/></svg>