<svg id="Livello_1" data-name="Livello 1" xmlns="http://www.w3.org/2000/svg" viewBox="0 0 1024 1024"><defs><style>.cls-1{fill:#b197e4;}</style></defs><circle class="cls-1" cx="506.15" cy="170.67" r="85.33"/><path class="cls-1" d="M722,567.62S672.09,548,666.2,518.35L644.89,412.58a104.38,104.38,0,0,0,98.75-72.38l32.27-99.73a42.66,42.66,0,1,0-81.18-26.27l-32.28,99.74a19.29,19.29,0,0,1-29.81,9.6s-29.13-21.23-29.71-21.61A85.27,85.27,0,0,0,482.38,314.4L367.38,185a42.67,42.67,0,1,0-63.79,56.69l170.67,192c.29.33,28.29,131.7,31.14,137.78L382,842.29a42.67,42.67,0,1,0,77.65,35.39l117.3-257.4a84.25,84.25,0,0,0,47.18-10.56l55.27,31.84a56.7,56.7,0,0,1,27.35,59.94L685.47,811.05a42.67,42.67,0,0,0,33.75,50,43.16,43.16,0,0,0,8.18.79,42.69,42.69,0,0,0,41.84-34.54l21.27-109.55A142,142,0,0,0,722,567.62Z"/></svg>