<svg id="Livello_1" data-name="Livello 1" xmlns="http://www.w3.org/2000/svg" viewBox="0 0 1024 1024"><defs><style>.cls-1{fill:#5b1ed1;}</style></defs><path class="cls-1" d="M337.29,554.79s-56.59-183.92-66-204.35c-7-15.1-29.15-14.35-37.55,0l-41.46,70.78L105.44,508A39.14,39.14,0,0,0,94,535.73v31.45a39.17,39.17,0,0,0,39.17,39.17h167A39.17,39.17,0,0,0,337.29,554.79Z"/><path class="cls-1" d="M913.32,515.26c-26.15-54.39-77.31-88.92-136.9-92.38-3.49-.19-82-.3-82-.3a204.68,204.68,0,0,1-81-16.63L571,387.79l-81.62-35C449.89,335.89,405.78,343.28,374,372c-32.48,29.39-43,76.15-29.1,117.71l83.5,250.5A43.4,43.4,0,0,0,487.76,766c20.45-9.33,29.54-33.58,22.44-54.9L426.25,459.22a21.53,21.53,0,0,1,28.91-26.59l55.42,23.74V598c0,22.68,16.58,42.93,39.16,45.08a43.43,43.43,0,0,0,47.67-43.22V545c0-25.38,23-44,48-39.79l.88.15c22.09,3.67,38,23.37,38,45.77V598c0,22.68,16.58,42.93,39.16,45.08a43.43,43.43,0,0,0,47.68-43.22V509.56h0c28.13,1.52,51.46,17.34,64,43.35,13.07,27.18,10.58,57.93-6.65,82.26l-45.83,64.72c-13.11,18.51-11.29,44.62,5.89,59.43a43.41,43.41,0,0,0,63.88-7.71l46.92-66.24A168.24,168.24,0,0,0,913.32,515.26Z"/></svg>