<svg id="Livello_1" data-name="Livello 1" xmlns="http://www.w3.org/2000/svg" viewBox="0 0 3970 360"><defs><style>.cls-1,.cls-3{opacity:0.9;}.cls-2,.cls-3{fill:#fff;}</style></defs><g class="cls-1"><path class="cls-2" d="M193.4,350.11V71.92l2.44-42.39h-1L184.63,70.45l-55.54,153H86.7L36,70.94,27.26,31h-.48L29.7,73.38V350.11H1.93V5.66h41.9L86.22,137.2l21.92,70.16h1L134,135.74,179.76,5.66h41.41V350.11Z"/><path class="cls-2" d="M807.73,350.11H763.4L667.9,5.66h31.18L771.68,278l14.13,52.62h1L803.35,278,890.56,5.66H919.3Z"/><path class="cls-2" d="M1039.13,350.11V5.66h189.53V29.53H1067.88v135h150.06v25.33H1067.88V325.27h172v24.84Z"/><path class="cls-2" d="M1500.5,230.75V350.11h-52.62V231.72L1349.47,5.66H1406l53.6,135.44,15.59,52.13h1.95l17.05-52.13,58-135.44h55.54Z"/><path class="cls-2" d="M2161.12,356.45c-70.65,0-114.5-21.93-114.5-125.7V5.66h53.11V227.82c0,68.7,22.9,83.81,61.39,83.81,42.87,0,61.87-18,61.87-90.63V5.66h50.67V218.57C2273.66,331.6,2227.38,356.45,2161.12,356.45Z"/><path class="cls-2" d="M2568.4,350.11l-62.85-132.52a168.69,168.69,0,0,1-22.9,1.47h-34.1V350.11h-53.11V5.66H2507.5c68.21,0,109.62,37.51,109.62,104.26,0,41.41-18.51,78-62.36,96l73.57,144.21ZM2494.83,47.56h-46.28V176.67h37c47.74,0,76.49-19.49,76.49-64.32C2562.07,68.51,2541.61,47.56,2494.83,47.56Z"/><path class="cls-2" d="M2745.24,350.11V5.66H2774V350.11Zm191.47,0-143.24-178.8v-9.26L2927.94,5.66H2963L2823.19,164.49l150.06,185.62Z"/><path class="cls-2" d="M3241.68,350.11,3111.6,53.89l-11.7-29.72h-1.46l1.95,32.64v293.3h-28.74V5.66h47.26L3248,295.55,3265.56,336h1l-1.46-44.33V5.66h29.72V350.11Z"/><path class="cls-2" d="M3426.31,350.11V5.66h189.53V29.53H3455.06v135h150.06v25.33H3455.06V325.27h172v24.84Z"/><path class="cls-2" d="M3767.34,350.11V5.66h189.53V29.53H3796.08v135h150.07v25.33H3796.08V325.27h172v24.84Z"/></g><path class="cls-3" d="M1887.54,283.8q-9.46,48.93-53.63,68.54t-76.46-10.79l-105.35-99q-27.61-25.93-21.21-67.83t41.52-65.13q71.55-47.34,143-94.69,43.27-28.63,81.48-2.36,38.28,26.11,28.25,77.57Q1906.35,187,1887.54,283.8Z"/><path class="cls-3" d="M517.08,310.47q46.86,16.93,86.34-11t29.91-71.18q-15.51-70.59-31-141.18-8.12-37-47.39-53t-77.2,2.28q-77.33,37.19-154.62,74.33-46.75,22.48-43.77,68.75,2.82,46.26,52.14,64Q424.33,277,517.08,310.47Z"/></svg>