<?xml version="1.0" encoding="UTF-8"?>
<svg id="Livello_1" data-name="Livello 1" xmlns="http://www.w3.org/2000/svg" viewBox="0 0 1024 1024">
  <defs>
    <style>
      .cls-1 {
        fill: #ececec;
      }

      .cls-2 {
        fill: #5b1ed1;
      }
    </style>
  </defs>
  <path class="cls-1" d="M539.04,732.88l-44.95-261.05-17.22,2.89,44.17,256.58v41.01l-22.08,209.26h17.88l6.02-61.1,187.47-8.65v69.75h17.88v-246.06h7.23v-9.73l-196.38,7.1Zm-14.25,167.83l13.06-132.61,172.46-6.31v130.35l-185.52,8.56Z"/>
  <path class="cls-2" d="M512.88,463.69c-7.89-5.26-11.04-7.62-20.77-11.57-7.41-3-28.52-14.08-44.68-23.26,.16-1.72,.33-3.45,.49-5.21,1.62-16.91,3.28-34.38,2.96-41.31-.37-7.87-1.1-14.61-1.53-18.64-.18-1.64-.28-2.62-.39-2.48,.16-.43,.64-1.27,1.31-2.46,3.26-5.89,10.04-18.14,9.82-29.71-.29-15.72-10.08-31.8-24.68-51.1-25.06-33.12-31.31-44.92-32.15-48.98-1.52-7.32-1.79-12.2-1.79-12.25l-.12-2.3h-6.45c1.09-4.73,3.52-15.01,4.93-19.36,1.86-5.84,3.13-6.09,8.97-7.36,5.75-1.35,14.21-4.23,19.96-4.74,5.75-.59,7.61-4.99,7.61-7.7s1.86-6.26,2.62-8.88c.76-2.62,1.35-4.23,1.86-5.84,.34-.85,1.02-1.95,1.35-3.13h.08c.08-.42,.17-.76,.17-1.18v-.25c0-.25,0-.59-.08-.85v-.08c-.08-.25-.17-.51-.25-.76-1.02-2.62-.76-9.98-.76-9.98,0,0,.17,0,.34-.08,.17,0,.34-.08,.59-.17,.68-.25,1.18-.51,1.61-.85,.51-.25,.93-.59,1.44-1.01,.25-.25,.51-.42,.68-.59,1.35-.85,2.37-.51,4.82-2.54,2.87-2.37-2.62-5.84-6.01-10.32-3.47-4.4-6.6-9.13-6.09-13.36,.51-4.23-.25-13.19-2.11-17.59-1.12-2.77-5.82-10.43-9.23-15.97,3.97-2.04,6.55-5.05,7.28-8.52,.52-2.46,.34-6.36-3.5-11-3.46-4.2-10.2-7.52-16.71-10.74-5.68-2.81-11.55-5.71-14.43-8.82-7.77-8.39-21.09-6.23-28.05-2-2.36,1.42-3.97,2.85-5.37,4.11-2.58,2.3-3.86,3.62-8.5,3.43-8.28-.25-12.91,0-18.76,3.81-3.22,2.1-3.89,5.11-4.37,7.31-.53,2.37-.77,3.45-3.1,4.11-1.56,.44-2.77,.55-3.79,.65-4.51,.44-6.64,1.45-11.13,10.42-2.52,5.03-3.4,9.86-4.12,13.74-1.03,5.65-1.67,8.42-4.98,9.49l-.87,.28c-5.39,1.73-10.99,3.52-12.88,8.1-1.16,2.8-.74,6.09,1.3,10.05,1.84,3.56,4.12,6.23,6.12,8.59,4.02,4.7,6.44,7.54,3.78,14.36-5.05,12.92-2.13,16.56,6.84,20.3,2.59,1.08,5.34,1.81,7.99,2.51,4.39,1.16,8.54,2.26,9.34,4.41,2.21,6.01,9.91,9.14,18.17,7.48,.25,1.69,.54,4.27,.68,7.71,.18,4.66-4.36,9.95-7.05,12.66-.58-.26-.89-.39-.95-.42l-1.26-.53-1.11,.79c-.17,.12-4.22,3.07-7.34,9.6-1.05,2.19-3.2,5.57-5.48,9.15-3.96,6.22-8.44,13.28-10.64,19.18-2.8,7.53-12.97,38.15-13.82,50.9-.6,8.81,1.88,38.14,3.52,57.55,.6,7.01,1.06,12.56,1.2,15.04,.22,3.7,1.32,11.11,2.62,19.69,.31,2.05,.63,4.18,.95,6.33-.37,4.22-.4,8.66,.37,13.27,.32,1.93,1.07,3.97,2.17,6.06,.37,3.67,.56,6.76,.45,8.8-.52,10.55-3.22,23.34-8.02,38.01-4.81,14.66-12.09,45.05-12.65,47.37-.75,2.06-6.58,20.26,1.52,65.28,5.43,30.21,9.46,44.52,11.63,52.21,1.15,4.12,1.8,6.39,1.85,8.15,.16,5.88,1.73,24.49,2.02,27.02,.2,1.84,.79,4.06,1.59,7.14l1.1,4.22c1.14,4.58,1.46,9.71,1.69,13.46l.08,1.1c.11,1.69,0,3.23-.08,4.68-.11,1.97-.23,3.82,.1,5.81,.5,3.01,.56,8.1,.1,9.74-.15,.55-.41,1.21-.68,1.94-.81,2.13-1.83,4.78-1.83,7.64,0,3.03-4.89,36.38-9.45,63.48-4.45,26.34,2.86,83.97,3.17,86.41l.12,.97,.76,.61c.07,.06,.66,.52,1.81,1.15,1.53,17.18,.52,28.3-.31,33.75l-.54-1.12-2.31,3.84c-.05,.09-5.43,9.01-10.66,14.26-3.18,3.17-4.74,8.18-4.18,13.38,.82,7.57,5.9,14.71,14.31,20.08,13.47,8.61,18.63,21.02,21.4,27.69,.41,.98,.77,1.84,1.1,2.56,2.95,6.49,15.74,15.88,31.12,15.88,3.82,0,7.06,.21,9.76,.39,1.99,.13,3.7,.24,5.19,.24,2.74,0,4.7-.39,6.17-1.76,1.22-1.15,1.82-2.77,1.82-4.98v-1.23c1.19,.18,2.6,.33,4.11,.33,3.08,0,6.53-.62,9-2.8,3.03-2.67,3.45-5.42,3.28-7.26-.3-3.22-2.73-6.32-6.8-8.73-6.18-3.65-12.52-9.1-17.05-24.11-5.02-16.65-14.3-32.56-14.69-33.22l-.84-1.43-1.39,.23c-.43-8.14-1.52-34.71,1.85-47.87,1.41-.37,2.13-.84,2.39-1.03l.7-.53,.2-.87c.22-.98,22.13-98.5,28.09-119.75,5.8-20.64,13.77-61.19,14.4-64.42,5.93-17.15,16.21-47.33,19.59-73.41,4.41-33.99,9.66-64.26,9.71-64.57v-.02c.71-3.32,11.37-53.85,13.04-73.93,9.3,1.91,17.99,4.13,21.65,9.13,5.78,7.89,8.41,12.62,15.77,13.67,7.36,1.05,15.77,1.79,15.51,8.68-.26,6.89,2.64,9.73,0,12.36-2.64,2.63-3.55,7.77-.79,7.62s.17,5.14,3.77,5.72c3.59,.59,5.17-8.09,8.33-12.03s6.05-3.94,5.78-14.2c-.26-10.25,5.52-17.61-2.37-22.87Z"/>
</svg>