<svg id="Livello_1" data-name="Livello 1" xmlns="http://www.w3.org/2000/svg" viewBox="0 0 1024 1024"><defs><style>.cls-1{fill:#b197e4;}</style></defs><path class="cls-1" d="M512,42.67C253.23,42.67,42.69,253.21,42.69,512S253.23,981.33,512,981.33,981.35,770.79,981.35,512,770.81,42.67,512,42.67ZM512,896c-211.74,0-384-172.26-384-384S300.28,128,512,128,896,300.26,896,512,723.76,896,512,896Z"/><path class="cls-1" d="M796,512a42.65,42.65,0,0,0-42.66-42.66H554.66V270.64a42.66,42.66,0,1,0-85.32,0v198.7H270.64a42.66,42.66,0,1,0,0,85.32h198.7v198.7a42.66,42.66,0,1,0,85.32,0V554.66h198.7A42.65,42.65,0,0,0,796,512Z"/></svg>