<svg id="Livello_1" data-name="Livello 1" xmlns="http://www.w3.org/2000/svg" viewBox="0 0 1024 1024"><defs><style>.cls-1{fill:#b197e4;}</style></defs><circle class="cls-1" cx="512" cy="187.73" r="102.4"/><path class="cls-1" d="M825.65,864.67,616,655.07V430.85L769.29,277.61a43.34,43.34,0,0,0,0-61.3h0a43.34,43.34,0,0,0-61.3,0l-47.58,47.58c-70.12,62.21-111,91.16-148.41,92.33-37.42-1.17-78.29-30.12-148.41-92.33L316,216.31a43.34,43.34,0,0,0-61.3,0h0a43.34,43.34,0,0,0,0,61.3L408,430.85V655.07L198.35,864.67a43.35,43.35,0,0,0,61.3,61.3l50.28-50.28C403,782.31,460.61,735.63,512,730.58c51.39,5,109,51.73,202.07,145.11L764.35,926a43.35,43.35,0,0,0,61.3-61.3Z"/></svg>