<svg id="Livello_1" data-name="Livello 1" xmlns="http://www.w3.org/2000/svg" viewBox="0 0 1024 1024"><defs><style>.cls-1{fill:#fff;}</style></defs><path class="cls-1" d="M512,42.67C253.23,42.67,42.69,253.21,42.69,512S253.23,981.33,512,981.33,981.35,770.79,981.35,512,770.81,42.67,512,42.67ZM512,896c-211.74,0-384-172.26-384-384S300.28,128,512,128,896,300.26,896,512,723.76,896,512,896Z"/><path class="cls-1" d="M712.83,311.17a42.64,42.64,0,0,0-60.33,0L512,451.67,371.5,311.17a42.66,42.66,0,0,0-60.33,60.33L451.67,512,311.17,652.5a42.66,42.66,0,1,0,60.33,60.33L512,572.33l140.5,140.5a42.66,42.66,0,0,0,60.33-60.33L572.33,512l140.5-140.5A42.64,42.64,0,0,0,712.83,311.17Z"/></svg>