<svg id="Livello_1" data-name="Livello 1" xmlns="http://www.w3.org/2000/svg" viewBox="0 0 1024 1024"><defs><style>.cls-1{fill:#b197e4;}</style></defs><path class="cls-1" d="M512,298.67c-117.63,0-213.33,95.7-213.33,213.33S394.37,725.33,512,725.33,725.33,629.63,725.33,512,629.63,298.67,512,298.67ZM512,640A128,128,0,1,1,640,512,128.14,128.14,0,0,1,512,640Z"/><path class="cls-1" d="M888.52,170.67H848.8c-7.23,0-11.41-8.63-6.55-14a42.56,42.56,0,0,0,10.88-32.88c-2.12-22.18-22-38.47-44.3-38.47h-167c-22.28,0-42.18,16.29-44.3,38.47a42.6,42.6,0,0,0,10.88,32.88c4.87,5.36.69,14-6.55,14H135.48A135.48,135.48,0,0,0,0,306.15v411.7A135.48,135.48,0,0,0,135.48,853.33h753A135.48,135.48,0,0,0,1024,717.85V306.15A135.48,135.48,0,0,0,888.52,170.67Zm50.15,547.18A50.21,50.21,0,0,1,888.52,768h-753a50.21,50.21,0,0,1-50.15-50.15V306.15A50.21,50.21,0,0,1,135.48,256h753a50.21,50.21,0,0,1,50.15,50.15Z"/></svg>