<svg id="Livello_1" data-name="Livello 1" xmlns="http://www.w3.org/2000/svg" viewBox="0 0 1024 1024"><defs><style>.cls-1{fill:#5b1ed1;}</style></defs><path class="cls-1" d="M220.34,466.35,417.17,269.51a42.66,42.66,0,1,1,60.33,60.33L338,469.33H768a42.67,42.67,0,0,1,0,85.34H338L477.5,694.16a42.66,42.66,0,1,1-60.33,60.33L220.35,557.67a64.54,64.54,0,0,1,0-91.32Z"/><path class="cls-1" d="M512,42.67c258.79,0,469.33,210.54,469.33,469.33S770.81,981.33,512,981.33,42.69,770.79,42.69,512,253.23,42.67,512,42.67ZM512,896c211.73,0,384-172.26,384-384S723.75,128,512,128,128,300.26,128,512,300.28,896,512,896Z"/></svg>