<svg id="Livello_1" data-name="Livello 1" xmlns="http://www.w3.org/2000/svg" viewBox="0 0 1024 1024"><defs><style>.cls-1{fill:#b197e4;}</style></defs><circle class="cls-1" cx="512" cy="256" r="128"/><path class="cls-1" d="M714.61,750.45C693,668.73,664.79,593,635.17,537.27c-39.53-74.42-79.82-110.6-123.17-110.6s-83.65,36.18-123.18,110.6C359.21,593,331,668.73,309.39,750.45c-12.34,46.68-19.62,93.73,10.44,121.57,13,12.05,27.81,16.42,43.56,16.42,21.31,0,44.34-8,66.92-15.87,25.92-9,55.3-19.24,81.69-19.24s55.77,10.22,81.69,19.24c39.27,13.66,79.89,27.82,110.48-.55C734.23,844.17,727,797.13,714.61,750.45ZM621.72,792C591,781.29,552.81,768,512,768s-79,13.29-109.73,24c-5,1.74-10.67,3.71-16.15,5.51,1.19-6.51,3-14.79,5.77-25.22,43-162.76,98.6-248.16,120.11-259.59,21.51,11.43,77.07,96.83,120.11,259.59,2.76,10.43,4.58,18.71,5.77,25.22C632.4,795.69,626.73,793.72,621.72,792Z"/></svg>