<svg id="Livello_1" data-name="Livello 1" xmlns="http://www.w3.org/2000/svg" viewBox="0 0 1024 1024"><defs><style>.cls-1{fill:#b3b3b3;}</style></defs><circle class="cls-1" cx="512" cy="170.67" r="85.33"/><path class="cls-1" d="M797.06,54.08a42.67,42.67,0,0,0-63,5.41L560.79,287.07a34.26,34.26,0,0,1-33.45,13,85.26,85.26,0,0,0-68,16.83c-13.59,10.7-31.82,13.29-47.09,5.18l-5-2.64a126.2,126.2,0,0,1-52.42-52.61l-60.24-114.4c-10.38-19.71-34.06-29.74-54.68-21.28a42.67,42.67,0,0,0-21.68,59.41l61.11,116a211.41,211.41,0,0,0,87.85,88.18l59.46,31.59v85.95c0,15.62-4,31-13.05,43.74L221.14,828.73a42.67,42.67,0,0,0,69.72,49.21L475.7,616.08a44.08,44.08,0,0,1,36.08-18.66H512c2.76,0,5.49-.14,8.18-.4,16.6-1.6,33,4.23,44.12,16.71l32.18,36.2A78,78,0,0,1,608,736.68l-48.1,96.2c-9.63,19.26-4.56,43.39,13.21,55.55a42.67,42.67,0,0,0,62.44-16l48.78-97.57a163.4,163.4,0,0,0-24-181.62l-56.67-63.75a25.73,25.73,0,0,1-6.26-17.3v-.1s-.13-130.61-.19-131.88l203.7-267.56C814.34,94.91,813.43,69.21,797.06,54.08Z"/></svg>