<svg id="Livello_1" data-name="Livello 1" xmlns="http://www.w3.org/2000/svg" viewBox="0 0 1024 1024"><defs><style>.cls-1{fill:#5b1ed1;}</style></defs><circle class="cls-1" cx="256" cy="554.67" r="85.33"/><path class="cls-1" d="M426.67,512A42.67,42.67,0,0,0,384,554.67V606.2a76.55,76.55,0,0,1-76.47,76.47H170.67a42.67,42.67,0,1,0,0,85.33H307.53c89.22,0,161.8-72.58,161.8-161.8V554.67A42.66,42.66,0,0,0,426.67,512Z"/><path class="cls-1" d="M927.67,666.89l-29.24-19.35C915.7,609.48,924,566,924,522.67c0-188.22-153.12-341.34-341.33-341.34A340.84,340.84,0,0,0,268.22,389.79,42.67,42.67,0,1,0,346.81,423a255.67,255.67,0,0,1,235.9-156.36c141.16,0,256,114.84,256,256,0,26.71-6.15,160-127.46,160H597.33a42.67,42.67,0,0,0,0,85.33H711.25c58.51,0,104.11-19.56,137.86-50.76l31.47,20.82a42.67,42.67,0,1,0,47.09-71.17Z"/></svg>