<svg id="Livello_1" data-name="Livello 1" xmlns="http://www.w3.org/2000/svg" viewBox="0 0 1024 1024"><defs><style>.cls-1{fill:#b197e4;}</style></defs><path class="cls-1" d="M902.57,343.83,750.14,242.22a171.28,171.28,0,0,0-95.37-28.89h-221a88.66,88.66,0,0,0-76,134.27L592.31,738.5h0l56.46,94.11a42.66,42.66,0,1,0,73.16-43.9l-53.07-88.48L907.24,581V810.67a42.67,42.67,0,0,0,85.33,0V512A201.71,201.71,0,0,0,902.57,343.83Zm-52.93,170.6L691.76,593.37a80.82,80.82,0,0,1-105.43-30.7L469.42,365.36C452.34,336.53,473,300,506.47,299.78l148.3-1.11a86.18,86.18,0,0,1,48,14.54L855.24,414.83l.76.52C892.53,439.91,889,494.74,849.64,514.43Z"/><path class="cls-1" d="M160.87,140.27a42.66,42.66,0,1,0-71,47.33l65,97.56A88.78,88.78,0,0,0,129,308.38L19.33,454.56c-49.1,65.47,8.56,157,88.8,140.92l182.74-36.55c62.22-12.44,91.89-84.07,56.69-136.87Z"/></svg>